<?xml version="1.0" encoding="UTF-8" standalone="no"?>
<!-- Created with Inkscape (http://www.inkscape.org/) -->

<svg
   xmlns:dc="http://purl.org/dc/elements/1.1/"
   xmlns:cc="http://creativecommons.org/ns#"
   xmlns:rdf="http://www.w3.org/1999/02/22-rdf-syntax-ns#"
   xmlns:svg="http://www.w3.org/2000/svg"
   xmlns="http://www.w3.org/2000/svg"
   xmlns:sodipodi="http://sodipodi.sourceforge.net/DTD/sodipodi-0.dtd"
   xmlns:inkscape="http://www.inkscape.org/namespaces/inkscape"
   id="svg3378"
   version="1.1"
   inkscape:version="0.91 r13725"
   width="1200"
   height="1200"
   viewBox="0 0 1200 1200"
   sodipodi:docname="KJ.svg">
  <metadata
     id="metadata3384">
    <rdf:RDF>
      <cc:Work
         rdf:about="">
        <dc:format>image/svg+xml</dc:format>
        <dc:type
           rdf:resource="http://purl.org/dc/dcmitype/StillImage" />
        <dc:title></dc:title>
      </cc:Work>
    </rdf:RDF>
  </metadata>
  <defs
     id="defs3382" />
  <sodipodi:namedview
     pagecolor="#ffffff"
     bordercolor="#666666"
     borderopacity="1"
     objecttolerance="10"
     gridtolerance="10"
     guidetolerance="10"
     inkscape:pageopacity="0"
     inkscape:pageshadow="2"
     inkscape:window-width="1440"
     inkscape:window-height="838"
     id="namedview3380"
     showgrid="false"
     inkscape:zoom="0.39333333"
     inkscape:cx="339.23616"
     inkscape:cy="617.87344"
     inkscape:window-x="-8"
     inkscape:window-y="-8"
     inkscape:window-maximized="1"
     inkscape:current-layer="svg3378" />
  <path
     style="fill:#000000"
     d="m 584.7018,1177.2383 c -1.0725,-0.057 -5.5275,-0.2475 -9.9,-0.4236 -4.3725,-0.1761 -8.5575,-0.3765 -9.3,-0.4454 -0.7425,-0.069 -2.565,-0.206 -4.05,-0.3047 -1.485,-0.099 -3.375,-0.2406 -4.2,-0.3154 -24.4484,-2.2174 -36.9845,-3.8629 -56.1,-7.364 -12.8323,-2.3502 -36.5599,-7.7122 -54.45,-12.3045 -59.5045,-15.2747 -115.4231,-40.2813 -166.65,-74.5253 -8.7538,-5.8517 -26.1127,-18.1688 -34.8,-24.6925 -41.8455,-31.424 -78.9848,-68.61874 -110.2855,-110.45024 -10.4288,-13.9375 -23.6725,-32.9629 -31.2202,-44.85 -24.562501,-38.6841 -44.747401,-81.7889 -58.581101,-125.1 -5.7576,-18.0264 -12.2268,-43.0177 -17.9774,-69.45 -5.6721,-26.0709 -9.4802,-54.0002 -11.2693,-82.65 -1.3638,-21.8398 -1.1251,-52.0237 0.5859,-74.09998 2.7948,-36.05937 8.327,-67.42185 19.7914,-112.2 15.4435,-60.31977 41.0119,-117.16335 76.048901,-169.07182 9.4438,-13.99132 23.1447,-32.801 32.2157,-44.22818 13.6635,-17.21254 25.9229,-30.89512 42.6141,-47.56088 24.3438,-24.3068 44.2197,-40.89857 76.2275,-63.63229 26.852,-19.071716 47.2723,-31.467226 74.55,-45.253256 34.0706,-17.21907 70.6899,-30.97296 108.15,-40.62018 8.1191,-2.09092 32.3247,-7.80554 40.65,-9.5969 21.7297,-4.67557 47.9881,-8.4657 70.8,-10.21923 17.3356,-1.33257 25.7793,-1.60875 46.2,-1.51114 15.9954,0.0765 23.082,0.27332 31.5,0.87504 1.155,0.0826 4.125,0.29473 6.6,0.47148 23.7861,1.69868 51.1453,5.67642 75.3,10.9478 9.845,2.14849 34.77838,8.15028 43.01707,10.35474 51.4305,13.76146 100.84824,35.2332 146.52312,63.66351 17.57496,10.939526 43.94082,29.577546 60.95985,43.092506 27.25989,21.64731 52.46246,45.87523 75.09306,72.1888 22.4188,26.06742 47.5444,61.2053 64.7842,90.6 25.3269,43.18365 44.7569,90.34674 57.2233,138.9 1.7387,6.77151 6.0863,24.90003 8.0939,33.75 6.4303,28.34517 10.5172,57.27423 12.439,88.05 1.3638,21.83979 1.1252,52.02368 -0.5859,74.09998 -1.8813,24.2736 -5.2263,47.8144 -10.0816,70.95 -1.754,8.3582 -7.0617,30.9069 -9.7096,41.25 -14.2284,55.5767 -37.0751,108.261 -68.0404,156.9 -7.6285,11.9827 -22.6228,33.44 -31.9696,45.75 -16.4249,21.6317 -31.0149,38.3619 -50.1234,57.47604 -16.43122,16.436 -28.46008,27.2345 -45.66349,40.9929 -16.60104,13.2766 -41.53695,31.0538 -59.50947,42.4253 -44.07669,27.888 -91.78845,49.195 -142.20114,63.504 -14.03196,3.9828 -40.9099,10.4437 -57.6165,13.8499 -24.9914,5.0952 -49.4062,8.3136 -74.9824,9.8843 -4.0425,0.2482 -8.3625,0.5152 -9.6,0.5932 -2.8456,0.1795 -37.8816,0.4391 -40.5,0.3 z m 42.3,-41.2118 c 19.0725,-1.0724 33.6625,-2.4512 49.65,-4.6918 64.32658,-9.0155 126.39568,-29.4197 183.15004,-60.2076 31.75065,-17.224 62.36115,-38.0027 90,-61.0928 27.92292,-23.32744 54.85186,-50.92854 77.43876,-79.37164 84.2125,-106.0466 125.5836,-237.954 117.0963,-373.34998 -4.1507,-66.21639 -20.1501,-130.44882 -47.5133,-190.75038 C 1066.4863,299.70634 1022.2984,239.03474 967.64347,189.19303 901.52299,128.89556 821.6047,85.737934 735.47182,63.815234 639.8018,39.465134 538.1126,41.607014 443.5518,69.963924 c -24.0396,7.20902 -50.2304,17.20741 -73.5,28.0588 -7.254,3.382826 -21.0643,10.360516 -28.65,14.475586 -53.6984,29.13018 -101.8016,66.7637 -143.1138,111.96519 -80.2591,87.81479 -129.398801,198.88886 -140.219901,316.94918 -1.6643,18.15774 -2.1174,29.02701 -2.1072,50.54998 0.01,18.7376 0.2008,24.9042 1.2093,38.85 6.5362,90.385 34.5142,175.5951 82.742001,252 36.7229,58.1783 85.7878,110.3435 141.7896,150.74904 55.9777,40.3881 118.3428,69.5703 184.65,86.4025 37.0936,9.4162 74.4858,14.7499 114.6047,16.3474 7.9742,0.3175 38.7133,0.1272 46.0453,-0.2851 z m -89.85,-18.734 c -6.8482,-1.8188 -12.7474,-5.19 -18.3549,-10.4893 -13.2271,-12.5001 -21.9462,-32.5746 -24.4493,-56.2905 -0.5204,-4.9314 -0.5179,-20.0049 0,-24.75 1.7779,-16.1583 6.3579,-30.68854 13.3331,-42.30004 3.7146,-6.1836 9.7252,-13.3079 13.794,-16.35 0.7724,-0.5775 1.4086,-1.1188 1.4137,-1.2028 0,-0.084 -1.5579,-3.1891 -3.4734,-6.9 -33.7601,-65.4056 -72.4949,-121.7078 -116.1967,-168.8962 -5.412,-5.8438 -23.6423,-24.0643 -29.4205,-29.4046 -39.72795,-38.52833 -83.46503,-78.52387 -132.8803,-82.1964 -5.58673,28.84328 -3.78559,77.10201 -0.4526,104.55 5.874,46.8196 20.4755,97.5315 41.1596,142.95 2.1567,4.7357 9.8316,20.2392 10.5279,21.2668 0.226,0.3334 0.6338,0.1493 2.039,-0.9203 5.236,-3.9855 11.468,-6.5312 18.6131,-7.6029 4.1887,-0.6283 11.9967,-0.6266 16.7315,0 32.5419,4.3324 67.0854,30.9793 81.9277,63.19944 4.8815,10.5967 7.3328,21.4768 6.9513,30.8532 -0.7713,18.958 -11.5297,31.7341 -30.0672,35.7063 -4.269,0.9148 -13.0082,1.1383 -18.15,0.4642 -6.7603,-0.8862 -14.3049,-2.8383 -20.7,-5.356 -4.1527,-1.6349 -13.7741,-6.4992 -17.5791,-8.8875 -33.2083,-20.844 -54.8297,-56.79704 -50.938,-84.70204 0.164,-1.1765 0.117,-1.425 -0.2698,-1.425 -0.5769,0 -4.9131,-3.2689 -13.5631,-10.2246 -14.4244,-11.5992 -24.527,-20.7066 -38.7173,-34.9032 -16.2067,-16.2139 -26.7106,-28.1349 -39.515,-44.8462 -44.9276,-58.6359 -73.6921,-127.4049 -84.3355,-201.6261 -6.711641,-40.66422 -5.828042,-40.43519 -6.067366,-85.91397 0.45688,-25.79335 1.676466,-36.64057 3.046566,-55.38601 3.7361,-51.11595 16.1352,-100.02612 37.1894,-146.7 26.5119,-58.77267 67.0618,-111.85295 118.9732,-155.73758 10.6252,-8.9823 22.1009,-17.96242 22.9541,-17.96242 0.4286,0 0.4739,-0.21209 0.3048,-1.425 -0.7398,-5.30451 -0.4773,-11.66428 0.7423,-17.98409 4.5068,-23.35342 22.6564,-48.35655 46.7748,-64.43754 10.4376,-6.95926 19.0578,-11.0306 29.8469,-14.09677 7.8599,-2.23372 11.1697,-2.68672 19.6531,-2.68993 6.5,-0.002 7.7035,0.0747 10.4066,0.66719 7.8958,1.73071 14.0537,4.83961 19.1124,9.6491 16.9166,16.08324 13.981,47.02672 -7.1607,75.47903 -3.4747,4.67621 -6.1349,7.72687 -11.1988,12.84233 -9.5448,9.64197 -20.4147,17.50118 -32.0322,23.16017 -5.1175,2.49277 -6.3737,3.01802 -11.2273,4.69422 -7.3714,2.54579 -14.2962,3.98496 -21.1079,4.38684 -11.9297,0.70384 -22.0147,-1.83152 -29.836,-7.50077 -2.3519,-1.70479 -2.5173,-1.77603 -2.9043,-1.25124 -0.2257,0.30605 -1.9933,3.72896 -3.928,7.60646 -23.9531,48.00648 -41.2003,104.63364 -47.6509,156.45 -2.5432,20.42949 -3.3133,32.73387 -3.3046,52.8 -0.30788,6.62121 1.67805,52.16776 4.4345,51.59424 13.2078,-2.66658 36.3366,-12.92325 57.4972,-25.49769 25.3686,-15.07491 50.0009,-33.78438 75.5949,-57.41811 10.8069,-9.97914 29.3423,-29.13747 40.5069,-41.8683 38.4509,-43.84464 74.1331,-97.09981 104.1077,-155.37889 3.509,-6.82268 3.6594,-7.18827 3.1138,-7.57331 -1.3405,-0.94607 -5.5404,-4.93334 -7.4707,-7.09255 -10.8255,-12.10918 -18.3878,-31.34562 -20.6057,-52.41539 -0.2294,-2.17902 -0.3948,-7.33183 -0.3948,-12.3 0,-13.78587 1.3673,-23.19118 5.1462,-35.4 3.137,-10.13515 8.5239,-20.461236 14.4147,-27.631486 2.5709,-3.12925 6.9958,-7.35874 9.9628,-9.52276 2.6362,-1.92279 7.1298,-4.37239 9.935,-5.41586 7.943,-2.9546 17.3548,-2.74337 25.1268,0.5639 16.2616,6.91994 29.2038,25.26676 35.0093,49.629346 1.9972,8.38073 2.844,15.26643 3.0657,24.92686 0.2516,10.96208 -0.5999,19.91157 -2.8115,29.55 -5.4341,23.68279 -17.2339,41.56394 -32.6573,49.48805 -5.2224,2.68314 -9.2509,3.66189 -15.5938,3.78856 -3.4936,0.0698 -4.4871,0.17747 -4.4423,0.48163 0.2484,1.68639 1.0473,11.9593 1.2903,16.59176 0.3872,7.38211 0.3866,26.55495 0,34.38102 -2.56,51.67728 -14.6846,100.77291 -35.8261,145.06938 -27.9927,58.65126 -71.3726,107.69355 -128.3761,145.13283 -13.00913,9.80789 -28.6185,15.835 -41.8947,24.51685 48.53301,29.2925 97.37223,64.75259 128.2788,102.6999 46.8447,58.4995 73.8747,132.2122 77.8195,212.219 0.3864,7.8381 0.3862,27.0104 0,34.381 -0.2411,4.5963 -1.0209,14.6442 -1.2903,16.6243 -0.047,0.3468 0.5449,0.4124 3.2424,0.3596 1.815,-0.036 4.3125,0.08 5.55,0.2557 14.0064,1.9944 26.7096,12.641 35.56,29.803 7.4071,14.36324 11.2523,31.53774 11.2297,50.15744 -0.028,23.0115 -6.0813,44.0531 -17.1367,59.5667 -2.8684,4.0253 -8.3038,9.6552 -12.0354,12.4661 -3.425,2.58 -8.9692,5.4062 -12.9676,6.6104 -2.4774,0.746 -3.195,0.821 -8.7,0.9084 -5.5468,0.088 -6.204,0.041 -8.7,-0.6218 z m 181.95,-60.3668 c -16.7632,-3.0754 -32.0136,-9.7582 -47.0708,-20.6266 -47.7878,-37.12 -74.91751,-105.57089 -88.9675,-153.64234 -5.4499,-18.9921 -11.1906,-43.6488 -14.9798,-64.3396 l -1.8397,-10.0454 -3.1461,-0.6423 c -14.5033,-2.9606 -28.2085,-13.8641 -38.987,-31.0168 -4.3307,-6.8919 -9.3979,-18.1401 -11.9603,-26.55 -5.7243,-18.7874 -6.9651,-38.8535 -3.4595,-55.95 2.7612,-13.4666 7.9841,-24.3884 15.3884,-32.1793 13.1682,-13.856 31.6337,-15.3896 48.9582,-4.0663 31.9387,20.8753 48.9084,77.0248 35.3247,116.8826 -3.2664,9.5843 -7.3472,16.4771 -13.2912,22.4499 -1.9907,2.0002 -4.3956,4.1456 -5.3444,4.7674 -0.9487,0.6219 -1.725,1.2593 -1.725,1.4166 9.67761,13.545 17.84372,28.91502 28.8687,41.3291 2.46076,-17.84095 -4.73644,-31.38862 -8.03386,-45.52535 14.3973,-4.59495 20.00524,2.51421 27.71566,5.62535 -4.27248,-4.15006 -5.25673,-7.63758 -7.77968,-15.00161 -2.46609,-7.01035 -1.30223,-16.18811 -6.7591,-24.6622 14.40532,1.40055 19.21515,7.69395 24.68728,15.86441 -2.78373,-17.36789 -4.04389,-40.62722 -0.62698,-55.07473 2.61858,-9.95402 15.81726,-20.58143 18.83567,-20.01162 -0.25429,25.41648 1.08408,26.98367 5.82783,27.56593 9.97131,-19.80366 13.82328,-41.29692 5.89118,-63.86508 6.27345,2.63008 20.71445,14.2413 24.6229,17.8456 3.70872,-14.65575 2.94133,-37.26125 13.76536,-40.77756 -0.33545,9.83276 3.31783,19.52459 4.52384,14.81896 6.02916,-12.5495 17.5422,-26.62616 33.08551,-33.99314 7.89134,-17.84897 4.44678,-29.30207 3.53072,-41.93303 -1.34463,-14.6475 -4.66657,-30.22653 -12.5596,-41.73094 -7.77301,-12.66917 -12.00971,-18.24409 -24.04583,-24.47673 -3.90083,-0.94838 -8.38951,-0.89549 -12.7035,1.30692 -7.71654,4.92715 -9.13212,18.87916 -9.6465,26.59821 0,1.5504 0.039,1.6248 1.3179,2.50458 0.7248,0.49869 2.041,1.70799 2.925,2.68737 4.4089,4.88499 6.7176,11.67237 7.0525,20.73474 0.8397,22.71632 -13.5278,45.79142 -30.0862,48.32052 -9.3279,1.4248 -17.6231,-5.2319 -20.6903,-16.6034 -0.8902,-3.3 -1.3165,-7.0634 -1.3159,-11.6171 0,-8.81777 1.842,-16.75235 5.7787,-24.90638 2.7996,-5.79873 6.9886,-11.50953 10.7306,-14.6289 1.1314,-0.94311 2.1181,-1.98474 2.1928,-2.31474 0.7581,-3.35076 1.1498,-5.45538 1.3678,-7.35 2.53461,-14.43022 13.80483,-32.4673 21.3207,-37.36941 5.39728,-2.7401 11.19387,-3.70993 17.2768,-3.78237 7.49635,-0.46881 15.77991,3.75352 19.97993,7.78926 11.24862,10.26954 18.55973,19.41179 26.0241,29.01252 9.6281,13.21651 12.68375,23.25698 16.4838,38.55258 6.83905,20.14816 4.3586,39.30937 15.30021,54.67754 7.64177,-29.93307 4.63206,-62.03417 13.56024,-87.08012 6.39295,-19.76668 16.2191,-36.83873 29.07239,-48.52442 9.16566,-6.22502 24.92649,-11.93965 33.68656,-6.45532 0.49746,0.45021 0.59718,0.43812 1.35468,-0.16422 9.93066,-7.89636 25.35441,-2.83662 36.51447,11.97846 6.98619,9.27426 11.06454,20.30145 11.47089,31.0155 0.35097,9.25407 -1.80051,16.1691 -6.49791,20.88465 -3.31392,3.32673 -7.06719,4.83453 -11.97321,4.80996 -11.37693,-0.0569 -23.6229,-9.79794 -31.17075,-24.79461 -4.17525,-8.29572 -6.41358,-18.20421 -5.8851,-26.05191 l 0.19878,-2.95191 c -3.82058,-0.21252 -7.6654,0.58287 -10.58949,1.94106 -12.77323,6.73493 -17.33712,10.74067 -21.87342,22.73751 -5.83402,13.57496 -7.91851,22.72465 -9.16963,35.02913 -0.58824,15.41511 -1.22185,30.73663 0.13702,46.84614 0.54245,7.07552 1.87482,20.25027 6.63498,22.4845 10.5765,-3.72344 19.49088,-10.12978 27.24118,-7.0136 -7.91417,5.86094 -15.04508,10.58575 -12.91663,20.2291 8.38568,-8.0874 19.87223,-7.63297 29.04771,-11.0568 1.18317,-0.5153 5.57979,-3.12345 9.89506,-5.79582 -2.43374,5.93865 -1.86839,8.19941 -0.27467,8.98101 4.32133,-0.63557 12.65925,17.37686 12.91945,24.59661 0.0518,4.4962 0.18753,8.1723 0.30159,8.169 3.0987,-2.90845 15.59398,-4.0218 23.14114,-17.54273 1.77874,2.82159 0.39016,10.69578 0.35921,14.07481 -0.0939,10.2573 0.91116,11.10582 1.54629,10.89412 4.10438,-7.92384 9.01896,-14.1873 8.79091,-21.60967 8.75275,8.66625 17.74025,20.53485 20.98076,31.09857 3.67652,6.72135 0.61974,16.74291 3.38559,22.6296 0.77919,-0.15 1.42524,-2.379 3.48378,-12.0198 10.20765,-47.8058 13.07217,-96.7524 8.55426,-146.16892 -4.41036,-48.24024 -16.3587,-97.73625 -34.87023,-144.45 -29.11085,-62.38318 -56.58141,-120.52073 -108.3276,-158.82646 -22.12584,-16.2834 -43.77441,-27.18275 -63.1866,-31.81245 -9.19998,-2.19414 -15.55521,-2.96517 -24.3,-2.94811 -21.39464,0.0417 -40.23074,7.65671 -55.46074,22.42139 -8.8589,8.58831 -19.9878,22.72902 -25.2509,32.08444 -3.77208,6.11365 -5.70737,9.26702 -8.1034,14.88123 -3.4901,7.55001 -6.0861,13.80894 -8.5692,20.66037 -2.5584,7.05924 -4.3158,12.2937 -4.3158,12.85518 0,0.16689 1.0463,0.91206 2.325,1.65588 8.9478,5.20473 16.2185,13.51551 21.8527,24.97857 4.8182,9.80298 7.7295,20.09574 9.334,33 0.7408,5.95815 0.7283,21.03948 -0.023,27.15 -2.9846,24.29196 -11.4602,43.92987 -24.6428,57.09669 -8.6093,8.59896 -18.4335,13.10331 -28.5793,13.10331 -7.5262,0 -13.6762,-1.92327 -20.1641,-6.30585 -7.6783,-5.1867 -14.0221,-12.92751 -19.0494,-23.24415 -5.5661,-11.42244 -8.7709,-23.99118 -9.74,-38.19888 -1.8283,-26.80551 5.3115,-53.71011 19.1574,-72.18915 2.9528,-3.94089 8.7509,-9.69558 12.3289,-12.23673 3.2242,-2.28978 8.358,-4.94412 11.6987,-6.04854 2.6761,-0.88467 2.5379,-0.53115 2.823,-7.2267 0.1054,-2.475 0.3914,-7.6725 0.6356,-11.55 3.976,-63.12863 13.0301,-112.02393 27.4008,-147.97354 8.355,-20.90074 19.2223,-37.50227 29.7093,-45.38529 3.2943,-2.47638 4.4762,-3.11784 4.7948,-2.60235 0.1819,0.29427 0.7594,0.0877 2.4007,-0.85852 7.7004,-4.439606 17.5795,-6.673996 29.4371,-6.657836 11.7849,0.0161 23.6953,1.94268 38.55002,6.235856 13.28931,3.84075 24.95535,8.24291 41.1,15.50902 28.02732,12.61406 63.3666,32.93641 96,55.20613 9.2385,6.30454 16.82349,11.73934 17.84685,12.7876 0.4236,0.43391 2.51457,2.00393 4.64658,3.48893 13.97097,9.73108 31.4469,23.70499 45.75447,36.5857 38.1552,34.35001 70.35958,75.17771 94.34638,119.60924 38.1142,80.93617 57.0199,156.92049 58.2589,234.49791 -1.1916,30.2806 -6.1805,65.65513 -11.798,92.45713 -14.019,65.9497 -39.6968,127.9233 -74.518,179.85 -24.49255,34.71097 -49.73987,64.59646 -78.72938,94.0066 -17.27517,17.4332 -31.70019,30.8196 -46.9578,43.5769 -55.954,36.91514 -109.16019,79.47214 -169.49912,67.57944 z m 41.55004,-249.40764 c 10.66434,-2.7505 20.44722,-13.0919 26.3982,-27.9054 1.77039,-4.407 4.3881,-13.8333 4.33212,-15.6 -0.008,-0.2475 -0.54135,0.6714 -1.18557,2.042 -4.15209,8.8339 -11.25339,13.9619 -17.59263,12.7041 -12.53877,-2.4879 -19.1436,-21.7315 -13.71042,-39.9461 2.82582,-9.4734 9.48876,-16.4392 16.26807,-17.0076 5.88141,-0.4931 11.39031,3.2781 14.98446,10.2576 1.0872,2.1113 1.17306,1.7052 0.36879,-1.7441 -3.04683,-13.0671 -10.0905,-24.6825 -18.25572,-30.1048 -4.85724,-3.2256 -8.69931,-4.4264 -14.1573,-4.4247 -4.67787,0 -6.82047,0.5124 -11.25,2.683 -7.57311,3.7109 -13.80189,10.4865 -18.74514,20.3906 -2.7187,5.4472 -4.11,9.1128 -5.3835,14.1837 -4.7178,18.7863 -3.2819,38.385 3.9391,53.7663 4.75988,10.1389 12.44147,17.8001 20.4476,20.3933 4.04049,1.3087 9.21534,1.4279 13.54194,0.3121 z m 81.1986,-7.3289 c 11.74293,-2.2594 21.04947,-13.4315 24.66687,-29.6115 1.4175,-6.3404 1.76064,-10.2 1.59717,-17.965 -0.15741,-7.4754 -0.7659,-12.229 -2.44407,-19.0934 -5.39943,-22.086 -19.67607,-39.9704 -34.8366,-43.6399 -3.70617,-0.8971 -8.92713,-0.8966 -12.27324,0 -10.52382,2.8234 -18.87927,13.0296 -22.53483,27.5264 -1.39977,5.551 -2.70891,15.7409 -1.96308,15.28 0.18654,-0.1153 0.33918,-0.3885 0.33918,-0.6072 0,-0.2187 0.55101,-1.4984 1.22445,-2.8439 1.58325,-3.1633 3.76143,-5.4166 6.48105,-6.7048 1.91823,-0.9085 2.24832,-0.9683 5.3445,-0.9683 2.89368,0 3.53193,0.098 5.18364,0.7936 8.7387,3.6818 15.49932,12.7984 18.58467,25.061 0.74883,2.9762 0.81576,3.7181 0.80691,8.9454 -0.009,5.3529 -0.0599,5.8639 -0.83553,8.3919 -2.62293,8.5496 -8.19609,12.8483 -15.34479,11.8359 -3.87315,-0.5485 -7.27641,-2.3896 -11.05938,-5.9831 -1.90059,-1.8053 -5.57505,-6.467 -5.97147,-7.5758 -0.0725,-0.2029 -0.20274,-0.3014 -0.28929,-0.2189 -0.25494,0.2429 2.02515,5.8402 4.09392,10.05 7.39512,15.0486 19.46667,25.7443 30.94299,27.4163 2.78913,0.4063 5.88234,0.3728 8.28693,-0.09 z"
     id="path4188"
     inkscape:connector-curvature="0"
     sodipodi:nodetypes="cscccsssssssssssssssssssscsssssssssssssssssssscccsssssssssssssscsssssscsccssccscccscsscssscsscssssccsssscssscsssssssscssccsssccscsssssscsssssscscccsccccsscscccccccsccssssssccccccccccccccccccccccccssccsccccccccccccssssssscccccccccccccccccccssccsssccsscsscssssssccssscccsssssssccccccccscsssscssccssssccsssccscsscscsccscccsccc" />
</svg>
